# xmcd
#
# Track frame offsets: 
#        150
#        13542
#        31345
#        48589
#        61664
#        72392
#        87031
#        104305
#        121530
#        141759
#        158793
#        187350
#        212270
#
# Disc length: 3075 seconds
#
# Revision: 0
# Processed by: cddbd v1.5.2PL0 Copyright (c) Steve Scherf et al.
# Submitted via: ExactAudioCopy v0.95b4
#
DISCID=a70c010d
DTITLE=All Colours - Coloured Coffee
DYEAR=2005
DGENRE=Blues
TTITLE0=Stop Me
TTITLE1=Night Comes Every Morning
TTITLE2=Listen To Your Heart
TTITLE3=Solitary Man
TTITLE4=Come On Home
TTITLE5=Baby Come Back
TTITLE6=One On One
TTITLE7=Love Is The Word
TTITLE8=Morningland
TTITLE9=Captain America
TTITLE10=Streetfighting Man
TTITLE11=Please Baby
TTITLE12=Wahooho Days
EXTD=
EXTT0=
EXTT1=
EXTT2=
EXTT3=
EXTT4=
EXTT5=
EXTT6=
EXTT7=
EXTT8=
EXTT9=
EXTT10=
EXTT11=
EXTT12=
PLAYORDER=
